<?xml version="1.0" encoding="UTF-8" standalone="no"?>
<!DOCTYPE svg PUBLIC "-//W3C//DTD SVG 1.1//EN"
 "http://www.w3.org/Graphics/SVG/1.1/DTD/svg11.dtd">
<!-- Generated by graphviz version 2.26.3 (20100126.1600)
 -->
<!-- Title: G Pages: 1 -->
<svg width="510pt" height="880pt"
 viewBox="0.00 0.00 510.00 880.00" xmlns="http://www.w3.org/2000/svg" xmlns:xlink="http://www.w3.org/1999/xlink">
<g id="graph1" class="graph" transform="scale(1 1) rotate(0) translate(4 876)">
<title>G</title>
<polygon fill="white" stroke="white" points="-4,5 -4,-876 507,-876 507,5 -4,5"/>
<g id="graph2" class="cluster"><title>cluster_Global</title>
<polyline fill="none" stroke="gray" points="20,-98 482,-98 "/>
<path fill="none" stroke="gray" d="M482,-98C488,-98 494,-104 494,-110"/>
<polyline fill="none" stroke="gray" points="494,-110 494,-852 "/>
<path fill="none" stroke="gray" d="M494,-852C494,-858 488,-864 482,-864"/>
<polyline fill="none" stroke="gray" points="482,-864 20,-864 "/>
<path fill="none" stroke="gray" d="M20,-864C14,-864 8,-858 8,-852"/>
<polyline fill="none" stroke="gray" points="8,-852 8,-110 "/>
<path fill="none" stroke="gray" d="M8,-110C8,-104 14,-98 20,-98"/>
<text text-anchor="middle" x="251" y="-850.1" font-family="Times Roman,serif" font-size="11.00" fill="gray">\</text>
</g>
<g id="graph3" class="cluster"><title>cluster_\cmfcmf</title>
<polyline fill="none" stroke="gray" points="28,-106 320,-106 "/>
<path fill="none" stroke="gray" d="M320,-106C326,-106 332,-112 332,-118"/>
<polyline fill="none" stroke="gray" points="332,-118 332,-822 "/>
<path fill="none" stroke="gray" d="M332,-822C332,-828 326,-834 320,-834"/>
<polyline fill="none" stroke="gray" points="320,-834 28,-834 "/>
<path fill="none" stroke="gray" d="M28,-834C22,-834 16,-828 16,-822"/>
<polyline fill="none" stroke="gray" points="16,-822 16,-118 "/>
<path fill="none" stroke="gray" d="M16,-118C16,-112 22,-106 28,-106"/>
<text text-anchor="middle" x="174" y="-820.1" font-family="Times Roman,serif" font-size="11.00" fill="gray">cmfcmf</text>
</g>
<g id="graph4" class="cluster"><title>cluster_\cmfcmf\OpenWeatherMap</title>
<polyline fill="none" stroke="gray" points="36,-160 312,-160 "/>
<path fill="none" stroke="gray" d="M312,-160C318,-160 324,-166 324,-172"/>
<polyline fill="none" stroke="gray" points="324,-172 324,-792 "/>
<path fill="none" stroke="gray" d="M324,-792C324,-798 318,-804 312,-804"/>
<polyline fill="none" stroke="gray" points="312,-804 36,-804 "/>
<path fill="none" stroke="gray" d="M36,-804C30,-804 24,-798 24,-792"/>
<polyline fill="none" stroke="gray" points="24,-792 24,-172 "/>
<path fill="none" stroke="gray" d="M24,-172C24,-166 30,-160 36,-160"/>
<text text-anchor="middle" x="174" y="-790.1" font-family="Times Roman,serif" font-size="11.00" fill="gray">OpenWeatherMap</text>
</g>
<g id="graph5" class="cluster"><title>cluster_\cmfcmf\OpenWeatherMap\Util</title>
<polyline fill="none" stroke="gray" points="215,-376 299,-376 "/>
<path fill="none" stroke="gray" d="M299,-376C305,-376 311,-382 311,-388"/>
<polyline fill="none" stroke="gray" points="311,-388 311,-762 "/>
<path fill="none" stroke="gray" d="M311,-762C311,-768 305,-774 299,-774"/>
<polyline fill="none" stroke="gray" points="299,-774 215,-774 "/>
<path fill="none" stroke="gray" d="M215,-774C209,-774 203,-768 203,-762"/>
<polyline fill="none" stroke="gray" points="203,-762 203,-388 "/>
<path fill="none" stroke="gray" d="M203,-388C203,-382 209,-376 215,-376"/>
<text text-anchor="middle" x="257" y="-760.1" font-family="Times Roman,serif" font-size="11.00" fill="gray">Util</text>
</g>
<!-- \\cmfcmf\\OpenWeatherMap\\Util\\Unit -->
<g id="node5" class="node"><title>\\cmfcmf\\OpenWeatherMap\\Util\\Unit</title>
<polygon fill="none" stroke="black" points="284,-744 230,-744 230,-708 284,-708 284,-744"/>
<text text-anchor="middle" x="257" y="-723.1" font-family="Courier,monospace" font-size="11.00">Unit</text>
</g>
<!-- \\cmfcmf\\OpenWeatherMap\\Util\\Wind -->
<g id="node6" class="node"><title>\\cmfcmf\\OpenWeatherMap\\Util\\Wind</title>
<polygon fill="none" stroke="black" points="284,-690 230,-690 230,-654 284,-654 284,-690"/>
<text text-anchor="middle" x="257" y="-669.1" font-family="Courier,monospace" font-size="11.00">Wind</text>
</g>
<!-- \\cmfcmf\\OpenWeatherMap\\Util\\Sun -->
<g id="node7" class="node"><title>\\cmfcmf\\OpenWeatherMap\\Util\\Sun</title>
<polygon fill="none" stroke="black" points="284,-636 230,-636 230,-600 284,-600 284,-636"/>
<text text-anchor="middle" x="257" y="-615.1" font-family="Courier,monospace" font-size="11.00">Sun</text>
</g>
<!-- \\cmfcmf\\OpenWeatherMap\\Util\\Weather -->
<g id="node8" class="node"><title>\\cmfcmf\\OpenWeatherMap\\Util\\Weather</title>
<polygon fill="none" stroke="black" points="289,-582 225,-582 225,-546 289,-546 289,-582"/>
<text text-anchor="middle" x="257" y="-561.1" font-family="Courier,monospace" font-size="11.00">Weather</text>
</g>
<!-- \\cmfcmf\\OpenWeatherMap\\Util\\Temperature -->
<g id="node9" class="node"><title>\\cmfcmf\\OpenWeatherMap\\Util\\Temperature</title>
<polygon fill="none" stroke="black" points="302,-528 212,-528 212,-492 302,-492 302,-528"/>
<text text-anchor="middle" x="257" y="-507.1" font-family="Courier,monospace" font-size="11.00">Temperature</text>
</g>
<!-- \\cmfcmf\\OpenWeatherMap\\Util\\Time -->
<g id="node10" class="node"><title>\\cmfcmf\\OpenWeatherMap\\Util\\Time</title>
<polygon fill="none" stroke="black" points="284,-474 230,-474 230,-438 284,-438 284,-474"/>
<text text-anchor="middle" x="257" y="-453.1" font-family="Courier,monospace" font-size="11.00">Time</text>
</g>
<!-- \\cmfcmf\\OpenWeatherMap\\Util\\City -->
<g id="node11" class="node"><title>\\cmfcmf\\OpenWeatherMap\\Util\\City</title>
<polygon fill="none" stroke="black" points="284,-420 230,-420 230,-384 284,-384 284,-420"/>
<text text-anchor="middle" x="257" y="-399.1" font-family="Courier,monospace" font-size="11.00">City</text>
</g>
<!-- \\cmfcmf\\OpenWeatherMap\\WeatherForecast -->
<g id="node12" class="node"><title>\\cmfcmf\\OpenWeatherMap\\WeatherForecast</title>
<polygon fill="none" stroke="black" points="316,-366 198,-366 198,-330 316,-330 316,-366"/>
<text text-anchor="middle" x="257" y="-345.1" font-family="Courier,monospace" font-size="11.00">WeatherForecast</text>
</g>
<!-- \\cmfcmf\\OpenWeatherMap\\Weather -->
<g id="node15" class="node"><title>\\cmfcmf\\OpenWeatherMap\\Weather</title>
<polygon fill="none" stroke="black" points="96,-366 32,-366 32,-330 96,-330 96,-366"/>
<text text-anchor="middle" x="64" y="-345.1" font-family="Courier,monospace" font-size="11.00">Weather</text>
</g>
<!-- \\cmfcmf\\OpenWeatherMap\\WeatherForecast&#45;&gt;\\cmfcmf\\OpenWeatherMap\\Weather -->
<g id="edge6" class="edge"><title>\\cmfcmf\\OpenWeatherMap\\WeatherForecast&#45;&gt;\\cmfcmf\\OpenWeatherMap\\Weather</title>
<path fill="none" stroke="black" d="M197.782,-348C168.24,-348 133.189,-348 106.377,-348"/>
<polygon fill="none" stroke="black" points="106.167,-344.5 96.1672,-348 106.167,-351.5 106.167,-344.5"/>
</g>
<!-- \\cmfcmf\\OpenWeatherMap\\Exception -->
<g id="node13" class="node"><title>\\cmfcmf\\OpenWeatherMap\\Exception</title>
<polygon fill="none" stroke="black" points="295,-312 219,-312 219,-276 295,-276 295,-312"/>
<text text-anchor="middle" x="257" y="-291.1" font-family="Courier,monospace" font-size="11.00">Exception</text>
</g>
<!-- \\Exception -->
<g id="node21" class="node"><title>\\Exception</title>
<ellipse fill="none" stroke="black" cx="64" cy="-72" rx="62.2254" ry="18.3848"/>
<text text-anchor="middle" x="64" y="-68.4" font-family="Times Roman,serif" font-size="14.00" fill="gray">\Exception</text>
</g>
<!-- \\cmfcmf\\OpenWeatherMap\\Exception&#45;&gt;\\Exception -->
<g id="edge8" class="edge"><title>\\cmfcmf\\OpenWeatherMap\\Exception&#45;&gt;\\Exception</title>
<path fill="none" stroke="black" d="M218.273,-280.114C211.084,-276.507 203.968,-272.153 198,-267 153.493,-228.569 159.475,-204.344 126,-156 112.292,-136.204 96.1159,-114.334 83.7239,-97.8725"/>
<polygon fill="none" stroke="black" points="86.443,-95.6653 77.6218,-89.797 80.8582,-99.8855 86.443,-95.6653"/>
</g>
<!-- \\cmfcmf\\OpenWeatherMap\\Forecast -->
<g id="node14" class="node"><title>\\cmfcmf\\OpenWeatherMap\\Forecast</title>
<polygon fill="none" stroke="black" points="292,-258 222,-258 222,-222 292,-222 292,-258"/>
<text text-anchor="middle" x="257" y="-237.1" font-family="Courier,monospace" font-size="11.00">Forecast</text>
</g>
<!-- \\Iterator -->
<g id="node24" class="node"><title>\\Iterator</title>
<ellipse fill="none" stroke="black" cx="64" cy="-18" rx="51.8276" ry="18.3848"/>
<text text-anchor="middle" x="64" y="-14.4" font-family="Times Roman,serif" font-size="14.00" fill="gray">\Iterator</text>
</g>
<!-- \\cmfcmf\\OpenWeatherMap\\Forecast&#45;&gt;\\Iterator -->
<g id="edge12" class="edge"><title>\\cmfcmf\\OpenWeatherMap\\Forecast&#45;&gt;\\Iterator</title>
<path fill="none" stroke="black" stroke-dasharray="1,5" d="M221.224,-228.697C212.824,-224.756 204.452,-219.61 198,-213 141.26,-154.865 183.274,-102.609 126,-45 122.068,-41.0453 117.461,-37.6286 112.564,-34.6864"/>
<polygon fill="none" stroke="black" points="113.995,-31.4835 103.521,-29.8892 110.715,-37.6674 113.995,-31.4835"/>
</g>
<!-- \\cmfcmf\\OpenWeatherMap\\AbstractCache -->
<g id="node16" class="node"><title>\\cmfcmf\\OpenWeatherMap\\AbstractCache</title>
<polygon fill="none" stroke="black" points="309,-204 205,-204 205,-168 309,-168 309,-204"/>
<text text-anchor="start" x="223" y="-191.433" font-family="Courier,monospace" font-size="11.00">«abstract»</text>
<text text-anchor="start" x="213" y="-178.233" font-family="Courier,monospace" font-size="11.00">AbstractCache</text>
</g>
<!-- \\cmfcmf\\OpenWeatherMap -->
<g id="node17" class="node"><title>\\cmfcmf\\OpenWeatherMap</title>
<polygon fill="none" stroke="black" points="312,-150 202,-150 202,-114 312,-114 312,-150"/>
<text text-anchor="middle" x="257" y="-129.1" font-family="Courier,monospace" font-size="11.00">OpenWeatherMap</text>
</g>
<!-- \\ExampleCache -->
<g id="node18" class="node"><title>\\ExampleCache</title>
<polygon fill="none" stroke="black" points="486,-204 388,-204 388,-168 486,-168 486,-204"/>
<text text-anchor="middle" x="437" y="-183.1" font-family="Courier,monospace" font-size="11.00">ExampleCache</text>
</g>
<!-- \\ExampleCache&#45;&gt;\\cmfcmf\\OpenWeatherMap\\AbstractCache -->
<g id="edge10" class="edge"><title>\\ExampleCache&#45;&gt;\\cmfcmf\\OpenWeatherMap\\AbstractCache</title>
<path fill="none" stroke="black" d="M387.814,-186C366.782,-186 341.977,-186 319.653,-186"/>
<polygon fill="none" stroke="black" points="319.593,-182.5 309.593,-186 319.593,-189.5 319.593,-182.5"/>
</g>
</g>
</svg>
